<?xml version="1.0" encoding="utf-8"?>
<!-- Generator: Adobe Illustrator 25.0.0, SVG Export Plug-In . SVG Version: 6.00 Build 0)  -->
<svg version="1.1" id="Layer_1" xmlns="http://www.w3.org/2000/svg" xmlns:xlink="http://www.w3.org/1999/xlink" x="0px" y="0px"
	 viewBox="0 0 30 30" style="enable-background:new 0 0 30 30;" xml:space="preserve">
<style type="text/css">
	.st0{fill:#1D1D1B;}
	.st1{fill:#FFFFFF;}
</style>
<rect class="st0" width="30" height="30"/>
<g>
	<path class="st1" d="M0.42,12.91c0.34,0,0.67,0,1.01,0c0.43,0,0.43,0,0.51,0.42c0.19,0.92,0.38,1.85,0.57,2.77
		c0.01,0.04,0.02,0.07,0.05,0.15c0.07-0.33,0.13-0.62,0.19-0.91c0.15-0.74,0.31-1.48,0.45-2.23c0.03-0.16,0.09-0.22,0.26-0.22
		c0.39,0.02,0.79,0,1.21,0c-0.02,0.08-0.03,0.15-0.04,0.21c-0.35,1.3-0.7,2.59-1.05,3.89c-0.03,0.13-0.08,0.18-0.22,0.18
		c-0.55-0.01-1.1-0.01-1.65,0c-0.1,0-0.15-0.03-0.18-0.13C1.17,15.7,0.8,14.35,0.43,13C0.43,12.98,0.43,12.95,0.42,12.91z"/>
	<path class="st1" d="M26.48,17.17c-0.44,0-0.86,0-1.29,0c0-0.08,0-0.14,0-0.21c0-0.64,0-1.27,0-1.91c0-0.3-0.05-0.35-0.35-0.34
		c-0.53,0.02-0.54,0.02-0.54,0.55c0,0.56,0,1.12,0,1.69c0,0.07,0,0.13,0,0.21c-0.44,0-0.85,0-1.29,0c0-0.07-0.01-0.14-0.01-0.2
		c0-1.01,0-2.01,0-3.02c0-0.17,0.04-0.23,0.22-0.22c0.23,0.01,0.46,0.01,0.69,0c0.11,0,0.17,0.02,0.19,0.14
		c0.02,0.13,0.07,0.26,0.1,0.41c0.1-0.09,0.19-0.18,0.28-0.26c0.51-0.4,1.06-0.47,1.65-0.22c0.17,0.07,0.28,0.2,0.29,0.4
		c0.02,0.32,0.05,0.64,0.05,0.96C26.49,15.82,26.48,16.49,26.48,17.17z"/>
	<path class="st1" d="M22.67,17.18c-0.33,0-0.66,0-0.98,0c-0.03,0-0.08-0.06-0.1-0.1c-0.04-0.09-0.06-0.2-0.09-0.32
		c-0.04,0.04-0.06,0.06-0.08,0.08c-0.37,0.43-0.84,0.55-1.37,0.35c-0.43-0.16-0.68-0.55-0.65-1.02c0.02-0.43,0.27-0.75,0.71-0.86
		c0.31-0.07,0.63-0.09,0.95-0.13c0.1-0.01,0.19,0,0.3,0c0-0.15,0.01-0.28-0.01-0.41c-0.01-0.05-0.09-0.12-0.14-0.12
		c-0.4,0.01-0.8,0.04-1.2,0.06c-0.07,0-0.15,0.01-0.25,0.02c-0.03-0.27-0.05-0.52-0.07-0.78c0-0.04,0.05-0.11,0.08-0.11
		c0.65-0.12,1.3-0.25,1.97-0.14c0.59,0.1,0.89,0.44,0.92,1.1C22.69,15.58,22.67,16.36,22.67,17.18z M21.38,15.8
		c-0.21,0.02-0.39,0.02-0.57,0.05c-0.05,0.01-0.11,0.08-0.13,0.13c-0.04,0.14-0.05,0.3,0.1,0.4c0.1,0.07,0.5,0.04,0.57-0.03
		c0.02-0.02,0.03-0.04,0.03-0.07C21.38,16.13,21.38,15.98,21.38,15.8z"/>
	<path class="st1" d="M16.4,11.53c-0.19,0-0.37,0-0.55,0c-0.3,0-0.61,0-0.91,0c-0.1,0-0.14,0.03-0.14,0.14c0.01,0.2,0,0.39,0,0.59
		c0,0.12-0.05,0.18-0.18,0.23c-0.21,0.08-0.39,0.22-0.58,0.34c-0.12,0.08-0.23,0.17-0.33,0.27c-0.09,0.09-0.13,0.04-0.19-0.03
		c-0.14-0.15-0.29-0.29-0.43-0.44c-0.05-0.06-0.1-0.14-0.11-0.21c-0.01-0.21,0-0.42-0.01-0.63c0-0.25,0-0.25-0.26-0.25
		c-0.38,0-0.77,0-1.15,0c-0.14,0-0.19-0.04-0.19-0.19c0.01-0.3,0-0.6,0-0.91c0-0.13,0.01-0.24,0.2-0.17
		c0.08,0.03,0.17,0.01,0.26,0.01c1.45,0,2.91,0,4.36,0c0.17,0,0.22,0.04,0.22,0.22C16.39,10.82,16.4,11.16,16.4,11.53z"/>
	<path class="st1" d="M10.07,15.44c0.56,0.21,0.9,0.6,1.05,1.17c0.16-0.04,0.24-0.13,0.25-0.28c0.01-0.18,0.03-0.36,0.05-0.53
		c0.01-0.05,0.03-0.12,0.06-0.14c0.39-0.28,0.79-0.55,1.19-0.82c0,0,0.01,0,0.05,0c0.5,0.69,0.77,1.51,1.16,2.33
		c-0.11,0-0.19,0-0.27,0c-0.32,0-0.64,0-0.97,0c-0.29,0-0.29,0-0.36-0.28c-0.02-0.09-0.05-0.17-0.09-0.29
		c-0.07,0.07-0.11,0.11-0.14,0.15c-0.56,0.74-1.71,0.63-2.21,0.17c-0.41-0.38-0.52-0.87-0.39-1.39c0.12-0.48,0.46-0.78,0.94-0.87
		c0.48-0.09,0.96-0.12,1.44-0.18c0.05-0.01,0.11,0.02,0.17,0.03c-0.29,0.27-0.56,0.52-0.84,0.77c-0.04,0.03-0.11,0.04-0.17,0.03
		c-0.2-0.01-0.41-0.03-0.61-0.06C10.25,15.24,10.15,15.28,10.07,15.44z"/>
	<path class="st1" d="M29.36,14.61c-0.39-0.02-0.74-0.05-1.1-0.06c-0.07,0-0.2,0.05-0.22,0.1c-0.05,0.12,0.05,0.19,0.16,0.23
		c0.19,0.06,0.38,0.12,0.56,0.18c0.07,0.02,0.14,0.05,0.21,0.08c0.51,0.23,0.69,0.53,0.65,1.06c-0.04,0.48-0.34,0.84-0.83,0.98
		c-0.53,0.14-1.07,0.1-1.6,0.03c-0.01,0-0.02-0.01-0.04-0.01c-0.44-0.08-0.44-0.08-0.35-0.51c0.08-0.43,0.08-0.43,0.52-0.4
		c0.28,0.02,0.55,0.04,0.83,0.04c0.06,0,0.11-0.06,0.17-0.09c-0.04-0.07-0.07-0.16-0.13-0.2c-0.08-0.05-0.19-0.06-0.28-0.09
		c-0.08-0.03-0.17-0.05-0.25-0.08c-0.83-0.3-1.11-1.05-0.68-1.82c0.06-0.11,0.19-0.21,0.31-0.25c0.54-0.17,1.1-0.13,1.66-0.1
		c0.04,0,0.07,0.01,0.11,0.01c0.5,0.04,0.38,0.01,0.36,0.46C29.42,14.31,29.38,14.46,29.36,14.61z"/>
	<path class="st1" d="M9.1,13.76c-0.04,0.31-0.07,0.58-0.11,0.85c-0.37-0.02-0.7-0.05-1.04-0.06c-0.1,0-0.26-0.07-0.29,0.11
		c-0.03,0.18,0.12,0.21,0.24,0.25c0.23,0.08,0.46,0.14,0.68,0.23c0.48,0.2,0.69,0.51,0.67,0.96c-0.02,0.52-0.27,0.87-0.74,1.04
		c-0.44,0.16-0.9,0.13-1.36,0.1c-0.21-0.01-0.43-0.07-0.64-0.1c-0.11-0.02-0.16-0.06-0.14-0.18c0.04-0.19,0.08-0.37,0.11-0.56
		c0.02-0.14,0.08-0.16,0.21-0.15c0.35,0.04,0.7,0.06,1.05,0.07c0.07,0,0.13-0.05,0.2-0.08c-0.05-0.07-0.09-0.18-0.16-0.22
		c-0.17-0.08-0.36-0.12-0.54-0.18c-1.01-0.35-0.95-1.3-0.6-1.87c0.05-0.08,0.16-0.15,0.26-0.18c0.55-0.17,1.11-0.14,1.67-0.1
		C8.75,13.71,8.91,13.74,9.1,13.76z"/>
	<path class="st1" d="M17.35,14.48c-0.19,0-0.36,0-0.54,0c0-0.23,0-0.45,0-0.68c0.07-0.01,0.14-0.04,0.21-0.04
		c0.27,0.03,0.42-0.1,0.46-0.35c0.08-0.46,0.37-0.58,0.79-0.54c0.11,0.01,0.22,0,0.37,0c0,0.14,0,0.27,0,0.41c0,0.14,0,0.27,0,0.44
		c0.21,0,0.41,0.01,0.61,0c0.15-0.01,0.2,0.04,0.19,0.19c-0.02,0.18,0.05,0.42-0.04,0.51c-0.09,0.09-0.33,0.04-0.51,0.05
		c-0.25,0.01-0.25,0-0.25,0.25c0,0.39,0,0.79,0,1.18c0,0.32,0.02,0.34,0.34,0.36c0.33,0.02,0.33,0.02,0.38,0.35
		c0.07,0.48,0.02,0.55-0.46,0.59c-0.27,0.02-0.56,0.04-0.83,0c-0.45-0.06-0.7-0.37-0.71-0.83c-0.01-0.56,0-1.11,0-1.67
		C17.35,14.65,17.35,14.58,17.35,14.48z"/>
	<path class="st1" d="M6.06,13.73c0,1.16,0,2.29,0,3.44c-0.42,0-0.84,0-1.28,0c0-0.06-0.01-0.12-0.01-0.18c0-1.02,0-2.04,0-3.06
		c0-0.17,0.05-0.21,0.21-0.21C5.33,13.73,5.69,13.73,6.06,13.73z"/>
	<path class="st1" d="M16.65,17.17c-0.44,0-0.86,0-1.29,0c0-1.14,0-2.27,0-3.44c0.16,0,0.33,0,0.5,0c0.2,0,0.4,0.01,0.59,0
		c0.15-0.01,0.19,0.04,0.19,0.19c-0.01,0.68,0,1.37,0,2.05C16.65,16.36,16.65,16.75,16.65,17.17z"/>
	<path class="st1" d="M13.77,14.76c-0.04-0.22-0.09-0.44-0.13-0.66c-0.01-0.04,0.04-0.11,0.08-0.14c0.33-0.26,0.67-0.52,1.01-0.78
		c0.01-0.01,0.02-0.01,0.07-0.02c0,0.13,0,0.26,0,0.38c0,0.87,0,1.74,0,2.61c0,0.13-0.04,0.19-0.18,0.19
		c-0.15-0.01-0.3,0.01-0.44-0.01c-0.06-0.01-0.14-0.06-0.15-0.11c-0.06-0.3-0.11-0.6-0.17-0.9C13.84,15.18,13.87,15.07,14,15
		c0.04-0.02,0.07-0.05,0.09-0.09c0.02-0.04,0.06-0.1,0.05-0.12c-0.03-0.04-0.09-0.09-0.14-0.09C13.93,14.7,13.86,14.73,13.77,14.76z
		"/>
	<path class="st1" d="M12.41,13.32c0.03-0.04,0.05-0.07,0.07-0.09c0.06-0.06,0.14-0.12,0.04-0.19c-0.06-0.04-0.19-0.05-0.22-0.02
		c-0.17,0.2-0.35,0.15-0.55,0.07c-0.37-0.14-0.74-0.27-1.11-0.4c-0.04-0.02-0.08-0.05-0.12-0.11c0.15-0.02,0.29-0.05,0.44-0.06
		c0.37-0.03,0.75-0.08,1.12-0.05c0.31,0.02,0.63,0.09,0.9,0.22c0.2,0.09,0.34,0.31,0.49,0.48c0.03,0.03,0,0.13-0.04,0.18
		c-0.05,0.07-0.12,0.13-0.2,0.16c-0.08,0.03-0.17,0.05-0.25,0.03C12.79,13.48,12.61,13.4,12.41,13.32z"/>
	<path class="st1" d="M9.83,12.69c0.7,0.45,1.4,0.89,2.1,1.34c0,0.01,0,0.03-0.01,0.04c-0.06,0-0.12,0-0.18-0.01
		C11.16,14,10.58,13.94,10,13.88c-0.04,0-0.1-0.03-0.1-0.05c-0.05-0.36-0.09-0.73-0.13-1.09C9.79,12.72,9.81,12.7,9.83,12.69z"/>
	<path class="st1" d="M15.99,13.32c-0.35,0-0.63-0.27-0.62-0.6c0.01-0.32,0.28-0.58,0.62-0.58c0.35,0,0.63,0.26,0.63,0.59
		C16.62,13.07,16.34,13.32,15.99,13.32z"/>
	<path class="st1" d="M5.43,13.32c-0.35,0-0.63-0.25-0.63-0.58c0-0.33,0.27-0.59,0.62-0.6c0.34,0,0.63,0.26,0.63,0.59
		C6.04,13.06,5.77,13.32,5.43,13.32z"/>
	<path class="st1" d="M25.59,18.67c-0.09,0.33-0.18,0.66-0.27,0.99c-0.01,0.03-0.06,0.07-0.09,0.06c-0.03,0-0.07-0.05-0.08-0.08
		c-0.06-0.18-0.12-0.36-0.17-0.55c-0.02-0.06-0.04-0.11-0.08-0.22c-0.08,0.26-0.14,0.48-0.22,0.69c-0.02,0.06-0.07,0.11-0.11,0.17
		c-0.04-0.05-0.1-0.1-0.11-0.16c-0.08-0.3-0.16-0.59-0.24-0.89c0.02-0.01,0.03-0.03,0.05-0.04c0.04,0.05,0.09,0.08,0.11,0.14
		c0.06,0.21,0.11,0.42,0.21,0.64c0.07-0.21,0.13-0.41,0.2-0.62c0.02-0.06,0.07-0.1,0.11-0.15c0.04,0.05,0.1,0.1,0.12,0.16
		c0.07,0.2,0.13,0.41,0.21,0.63c0.13-0.27,0.12-0.58,0.28-0.81C25.53,18.64,25.56,18.66,25.59,18.67z"/>
	<path class="st1" d="M9.54,18.92c-0.07,0.23-0.14,0.45-0.21,0.68c-0.02,0.05-0.07,0.09-0.1,0.13c-0.04-0.04-0.09-0.08-0.1-0.13
		c-0.09-0.31-0.16-0.62-0.24-0.93c0.02-0.01,0.03-0.03,0.05-0.04c0.04,0.05,0.09,0.09,0.11,0.14c0.06,0.2,0.11,0.41,0.21,0.62
		c0.07-0.2,0.13-0.4,0.2-0.6c0.02-0.06,0.07-0.1,0.11-0.15c0.04,0.05,0.09,0.09,0.11,0.15c0.07,0.2,0.13,0.41,0.21,0.64
		c0.15-0.26,0.12-0.57,0.28-0.8c0.03,0.01,0.06,0.02,0.08,0.03c-0.04,0.18-0.09,0.35-0.13,0.53c-0.03,0.14-0.07,0.28-0.11,0.41
		c-0.02,0.05-0.07,0.09-0.1,0.13c-0.04-0.04-0.09-0.08-0.11-0.13c-0.08-0.22-0.14-0.45-0.21-0.68C9.56,18.93,9.55,18.93,9.54,18.92z
		"/>
	<path class="st1" d="M19.09,18.86c-0.09,0.28-0.16,0.51-0.24,0.74c-0.02,0.05-0.07,0.09-0.1,0.13c-0.03-0.04-0.09-0.08-0.1-0.13
		c-0.09-0.31-0.17-0.62-0.25-0.93c0.02-0.01,0.03-0.03,0.05-0.04c0.04,0.04,0.1,0.08,0.11,0.13c0.07,0.21,0.12,0.43,0.21,0.65
		c0.07-0.21,0.14-0.43,0.21-0.64c0.02-0.05,0.07-0.09,0.1-0.13c0.03,0.04,0.08,0.08,0.1,0.14c0.07,0.21,0.14,0.42,0.22,0.68
		c0.04-0.14,0.07-0.24,0.1-0.33c0.03-0.1,0.04-0.19,0.08-0.28c0.03-0.08-0.01-0.24,0.19-0.18c-0.09,0.33-0.17,0.66-0.26,0.99
		c-0.01,0.03-0.07,0.08-0.08,0.08c-0.04-0.03-0.09-0.06-0.1-0.1C19.25,19.39,19.18,19.15,19.09,18.86z"/>
	<path class="st1" d="M5.89,18.97c-0.04-0.04-0.1-0.07-0.13-0.11c-0.17-0.2-0.46-0.2-0.57,0.03c-0.07,0.14-0.08,0.33-0.05,0.49
		c0.02,0.16,0.17,0.26,0.34,0.25c0.2-0.01,0.3-0.15,0.35-0.36c-0.12-0.01-0.24-0.02-0.35-0.03c0-0.02,0-0.05,0-0.07
		c0.15-0.01,0.3-0.02,0.46-0.02c0,0.2,0,0.39,0,0.57c-0.01,0-0.02,0.01-0.03,0.01c-0.03-0.04-0.05-0.09-0.08-0.13
		c-0.39,0.22-0.66,0.18-0.81-0.12c-0.16-0.32-0.03-0.72,0.27-0.84c0.27-0.11,0.55,0.02,0.64,0.29C5.92,18.94,5.9,18.96,5.89,18.97z"
		/>
	<path class="st1" d="M27.56,19.74c-0.03-0.04-0.08-0.08-0.09-0.13c-0.07-0.36-0.12-0.4-0.53-0.32c0,0.12,0,0.24,0,0.36
		c0,0.03-0.04,0.05-0.06,0.08c-0.03-0.03-0.08-0.05-0.08-0.08c-0.01-0.33,0-0.66,0-1.01c0.14,0,0.26,0,0.37,0
		c0.16,0,0.34,0,0.39,0.17c0.04,0.12,0,0.27-0.01,0.43c0.02,0.13,0.04,0.3,0.06,0.47C27.61,19.72,27.59,19.73,27.56,19.74z
		 M26.95,19.16c0.15-0.01,0.28,0,0.4-0.04c0.06-0.02,0.13-0.13,0.13-0.19c-0.01-0.06-0.09-0.15-0.16-0.16
		c-0.11-0.03-0.24-0.01-0.36-0.01C26.95,18.91,26.95,19.02,26.95,19.16z"/>
	<path class="st1" d="M2.35,19.18c0,0.35-0.2,0.58-0.51,0.58c-0.31,0-0.52-0.23-0.52-0.58c0-0.34,0.21-0.57,0.52-0.57
		C2.15,18.62,2.35,18.84,2.35,19.18z M1.46,19.19c0,0.27,0.16,0.46,0.38,0.45c0.21,0,0.37-0.19,0.37-0.45
		c0-0.26-0.16-0.46-0.38-0.46C1.62,18.73,1.46,18.92,1.46,19.19z"/>
	<path class="st1" d="M14.44,19.2c-0.01,0.34-0.2,0.56-0.51,0.56c-0.32,0-0.52-0.24-0.51-0.6c0.01-0.34,0.21-0.55,0.52-0.55
		C14.25,18.62,14.44,18.84,14.44,19.2z M14.31,19.19c0-0.27-0.16-0.46-0.38-0.45c-0.22,0-0.37,0.18-0.37,0.44
		c0,0.28,0.14,0.46,0.37,0.46C14.15,19.64,14.31,19.45,14.31,19.19z"/>
	<path class="st1" d="M21.9,19.2c0,0.34-0.2,0.55-0.51,0.55c-0.31,0-0.51-0.23-0.51-0.58c0-0.35,0.21-0.57,0.52-0.56
		C21.72,18.62,21.91,18.84,21.9,19.2z M21.78,19.19c0-0.26-0.16-0.46-0.38-0.45c-0.22,0-0.38,0.2-0.38,0.46
		c0,0.25,0.17,0.45,0.38,0.45C21.61,19.64,21.78,19.45,21.78,19.19z"/>
	<path class="st1" d="M26.66,19.2c0,0.35-0.21,0.57-0.52,0.56c-0.31-0.01-0.5-0.24-0.49-0.59c0.01-0.34,0.21-0.55,0.52-0.55
		C26.47,18.62,26.66,18.84,26.66,19.2z M26.53,19.18c0-0.27-0.17-0.45-0.39-0.45c-0.22,0.01-0.38,0.21-0.37,0.47
		c0.01,0.26,0.16,0.44,0.38,0.44C26.37,19.64,26.53,19.44,26.53,19.18z"/>
	<path class="st1" d="M28.65,18.64c0.3,0.03,0.63-0.09,0.82,0.24c0.12,0.21,0.12,0.43-0.01,0.63c-0.19,0.31-0.51,0.21-0.81,0.22
		C28.65,19.37,28.65,19.01,28.65,18.64z M28.77,19.6c0.24,0.02,0.45,0.03,0.59-0.19c0.09-0.15,0.07-0.4-0.04-0.52
		c-0.16-0.17-0.35-0.12-0.55-0.11C28.77,19.06,28.77,19.32,28.77,19.6z"/>
	<path class="st1" d="M3.5,18.65c0.2,0,0.37-0.02,0.55,0c0.26,0.03,0.33,0.28,0.17,0.54c0.03,0.1,0.06,0.18,0.07,0.26
		c0.01,0.08,0.01,0.17,0.02,0.27c-0.1,0.05-0.13,0-0.14-0.1c-0.03-0.34-0.06-0.35-0.39-0.35c-0.12,0-0.15,0.04-0.15,0.15
		c0.01,0.07,0.01,0.15,0,0.22c0,0.03-0.04,0.06-0.06,0.09C3.54,19.7,3.5,19.67,3.5,19.64C3.49,19.31,3.5,18.99,3.5,18.65z
		 M3.64,18.77c0,0.13,0,0.25,0,0.39c0.14-0.01,0.27,0,0.39-0.04c0.06-0.02,0.13-0.13,0.13-0.19C4.15,18.88,4.07,18.79,4,18.77
		C3.89,18.75,3.77,18.77,3.64,18.77z"/>
	<path class="st1" d="M22.9,19.71c0-0.32,0-0.64,0-0.95c0-0.04,0.05-0.11,0.08-0.11c0.23-0.01,0.45-0.01,0.68,0.03
		c-0.18,0.16-0.4,0.04-0.61,0.11c0,0.09,0,0.19,0,0.29c0.17,0.08,0.4-0.05,0.57,0.07c0,0.02,0,0.04,0,0.06c-0.18,0-0.37,0-0.56,0
		c0,0.14,0,0.26,0,0.4c0.21,0,0.42,0,0.65,0C23.63,19.74,23.26,19.77,22.9,19.71z"/>
	<path class="st1" d="M2.65,19.08c0,0.1,0,0.2,0,0.3c0.01,0.16,0.11,0.26,0.27,0.27c0.17,0,0.29-0.1,0.29-0.27
		c0.01-0.2,0-0.41,0.01-0.61c0-0.04,0.05-0.08,0.07-0.12c0.02,0.04,0.06,0.07,0.06,0.11c0.01,0.21,0.01,0.42,0,0.63
		c-0.01,0.22-0.21,0.38-0.45,0.37c-0.22-0.01-0.39-0.17-0.4-0.38c-0.01-0.21-0.01-0.42,0-0.63c0-0.04,0.04-0.07,0.07-0.1
		c0.03,0.03,0.07,0.07,0.07,0.1C2.65,18.85,2.65,18.97,2.65,19.08C2.65,19.08,2.65,19.08,2.65,19.08z"/>
	<path class="st1" d="M20,19.1c0.2,0,0.38,0,0.56,0c0.12-0.13-0.08-0.36,0.18-0.48c0,0.36,0,0.69,0,1.01c0,0.03-0.04,0.06-0.06,0.1
		c-0.03-0.03-0.08-0.06-0.08-0.09c-0.01-0.13,0-0.26,0-0.4c-0.2,0-0.38,0-0.57,0c-0.1,0.15,0.06,0.36-0.09,0.5
		c-0.02,0-0.04-0.01-0.06-0.01c0-0.34,0-0.67,0-1.01c0-0.02,0.04-0.04,0.06-0.07C19.96,18.67,20,18.7,20,18.73
		C20.01,18.84,20,18.96,20,19.1z"/>
	<path class="st1" d="M11.09,19.75c-0.04-0.05-0.11-0.1-0.12-0.17c-0.04-0.19-0.17-0.18-0.32-0.18c-0.15,0-0.26,0.01-0.3,0.19
		c-0.01,0.06-0.08,0.11-0.12,0.16c-0.02-0.01-0.04-0.03-0.06-0.04c0.13-0.33,0.25-0.66,0.39-0.99c0.01-0.03,0.08-0.07,0.11-0.07
		c0.04,0.01,0.1,0.05,0.12,0.09c0.13,0.32,0.25,0.64,0.37,0.97C11.13,19.71,11.11,19.73,11.09,19.75z M10.84,19.28
		c-0.06-0.16-0.12-0.31-0.19-0.5c-0.07,0.19-0.12,0.34-0.18,0.5C10.61,19.28,10.71,19.28,10.84,19.28z"/>
	<path class="st1" d="M16.81,19.23c-0.21,0-0.4,0-0.6,0c0,0.14,0,0.27,0,0.39c0,0.03-0.03,0.07-0.05,0.1
		c-0.02-0.03-0.07-0.07-0.07-0.1c-0.01-0.29-0.01-0.58,0-0.87c0-0.04,0.04-0.07,0.06-0.11c0.02,0.04,0.06,0.07,0.06,0.11
		c0.01,0.1,0,0.21,0,0.33c0.2,0,0.38,0,0.6,0c0-0.12,0-0.23,0-0.34c0-0.03,0.04-0.07,0.06-0.1c0.02,0.03,0.07,0.07,0.07,0.1
		c0.01,0.29,0.01,0.58,0,0.87c0,0.04-0.04,0.07-0.07,0.11c-0.02-0.04-0.06-0.07-0.06-0.11C16.8,19.49,16.81,19.37,16.81,19.23z"/>
	<path class="st1" d="M6.96,19.74c-0.04-0.04-0.11-0.07-0.11-0.11c-0.04-0.26-0.22-0.23-0.41-0.24c-0.19-0.01-0.19,0.13-0.25,0.23
		c-0.02,0.05-0.07,0.08-0.11,0.12c-0.02-0.01-0.04-0.03-0.06-0.04c0.08-0.21,0.16-0.42,0.24-0.63c0.05-0.12,0.09-0.24,0.14-0.36
		c0.05-0.1,0.19-0.11,0.23-0.01C6.76,19.04,6.88,19.37,7,19.7C6.99,19.72,6.97,19.73,6.96,19.74z M6.51,18.78
		c-0.07,0.19-0.13,0.34-0.19,0.5c0.13,0,0.24,0,0.37,0C6.64,19.12,6.58,18.97,6.51,18.78z"/>
	<path class="st1" d="M17.11,18.65c0.25,0,0.49,0,0.76,0c-0.08,0.16-0.2,0.1-0.29,0.11c-0.11,0.01-0.22,0-0.35,0
		c0,0.12,0,0.22,0,0.33c0.2,0.01,0.39,0.02,0.58,0.04c0,0.03,0,0.05,0,0.08c-0.18,0-0.37,0-0.57,0c0,0.15,0,0.27,0,0.41
		c0.21,0,0.43,0,0.65,0c-0.07,0.13-0.3,0.15-0.78,0.1C17.11,19.37,17.11,19.01,17.11,18.65z"/>
	<path class="st1" d="M8.02,18.66c0.27,0,0.51,0,0.75,0c0,0.02,0,0.04,0,0.06c-0.18,0.11-0.4,0-0.61,0.06c0,0.09,0,0.19,0,0.3
		c0.19,0.01,0.38,0.02,0.58,0.04c0,0.03,0,0.05,0,0.08c-0.18,0-0.37,0-0.57,0c0,0.15,0,0.26,0,0.41c0.21,0,0.42,0,0.63,0
		c0.01,0.02,0.01,0.04,0.02,0.06c-0.04,0.02-0.07,0.06-0.11,0.06c-0.19,0.01-0.38,0.01-0.57,0c-0.04,0-0.11-0.06-0.11-0.1
		C8.02,19.31,8.02,18.99,8.02,18.66z"/>
	<path class="st1" d="M1.28,18.68c-0.05,0.08-0.09,0.16-0.14,0.23c-0.15,0.21-0.29,0.43-0.24,0.71c0.01,0.03-0.04,0.07-0.07,0.11
		c-0.02-0.02-0.06-0.05-0.06-0.07c0.07-0.39-0.2-0.64-0.37-0.94c-0.01-0.02-0.01-0.03-0.03-0.09C0.66,18.7,0.66,19,0.83,19.13
		C1,19,1.01,18.71,1.23,18.63C1.25,18.65,1.26,18.66,1.28,18.68z"/>
	<path class="st1" d="M7.36,18.78c-0.14-0.01-0.25-0.02-0.37-0.03c0-0.03,0-0.05,0-0.08c0.29-0.06,0.58-0.01,0.91-0.03
		c-0.11,0.2-0.27,0.07-0.4,0.16c0,0.21,0,0.44,0,0.67c0,0.05,0.01,0.1,0,0.15c-0.01,0.04-0.05,0.07-0.07,0.11
		c-0.02-0.04-0.06-0.07-0.06-0.11c-0.01-0.23,0-0.47,0-0.7C7.36,18.87,7.36,18.83,7.36,18.78z"/>
	<path class="st1" d="M15.59,18.78c-0.02,0.32-0.05,0.63-0.07,0.94c0,0-0.05,0-0.09,0c0-0.31,0-0.62,0-0.94
		c-0.14-0.02-0.25-0.03-0.37-0.04c0-0.02,0-0.05,0.01-0.07c0.29,0,0.58,0,0.86,0c0,0.02,0.01,0.04,0.01,0.06
		C15.82,18.75,15.71,18.76,15.59,18.78z"/>
	<path class="st1" d="M11.01,18.66c0.19-0.06,0.2,0.1,0.26,0.18c0.07,0.09,0.12,0.2,0.19,0.3c0.18-0.14,0.18-0.44,0.42-0.51
		c0.01,0.01,0.03,0.02,0.04,0.04c-0.07,0.11-0.13,0.23-0.21,0.34c-0.12,0.18-0.21,0.36-0.18,0.58c0.01,0.04-0.04,0.09-0.06,0.13
		c-0.02-0.04-0.07-0.09-0.06-0.13c0.04-0.26-0.09-0.45-0.22-0.65C11.13,18.86,11.08,18.77,11.01,18.66z"/>
	<path class="st1" d="M22.76,19.62c-0.07,0.13-0.23,0.15-0.71,0.1c0-0.12,0-0.25,0-0.37c0-0.19,0-0.38,0-0.57
		c0-0.05,0.05-0.1,0.07-0.14c0.02,0.01,0.04,0.02,0.06,0.02c0,0.31,0,0.62,0,0.96C22.39,19.62,22.57,19.62,22.76,19.62z"/>
	<path class="st1" d="M12.99,18.78c0,0.27,0,0.54,0,0.8c0,0.05-0.04,0.1-0.07,0.14c-0.02-0.05-0.06-0.1-0.06-0.15
		c-0.01-0.26,0-0.53,0-0.8c-0.14-0.02-0.26-0.03-0.38-0.05c0-0.02,0.01-0.05,0.01-0.07c0.28,0,0.57,0,0.85,0
		c0,0.02,0.01,0.05,0.01,0.07C13.25,18.75,13.13,18.76,12.99,18.78z"/>
	<path class="st1" d="M28.48,19.61c-0.07,0.13-0.29,0.16-0.69,0.1c0-0.33,0-0.66,0-0.99c0-0.03,0.04-0.05,0.06-0.08
		c0.02,0.03,0.07,0.07,0.07,0.1c0.01,0.28,0,0.55,0,0.86C28.11,19.61,28.29,19.61,28.48,19.61z"/>
</g>
</svg>
